<svg version="1.2" xmlns="http://www.w3.org/2000/svg" viewBox="0 0 850 384">
	<title>SAO PEDRO CAPITAL VERSAO HORIZONTAL RGB 44 213 196-ai</title>
	<style>
		.s0 { fill: #2cd5c4 } 
	</style>
	<g id="Layer 1">
		<g id="&lt;Group&gt;">
			<path id="&lt;Path&gt;" class="s0" d="m116 171.9c-61.5 0-107.7 0-107.7-51.3v-102.6h51.3c14.2 0 25.7 11.5 25.7 25.6v89.8c0 35.9 30.7 38.5 30.7 38.5z"/>
			<path id="&lt;Path&gt;" class="s0" d="m116 325.8c-61.5 0-107.7 0-107.7-51.3v-38.4h51.3c14.2 0 25.7 11.4 25.7 25.6v25.7c0 35.9 30.7 38.4 30.7 38.4z"/>
			<path id="&lt;Path&gt;" class="s0" d="m131.4 171.9c61.6 0 107.8 0 107.8 51.3v102.6h-51.3c-14.2 0-25.7-11.4-25.7-25.6v-89.8c0-35.9-30.8-38.5-30.8-38.5z"/>
			<path id="&lt;Path&gt;" class="s0" d="m131.4 18c61.6 0 107.8 0 107.8 51.3v38.5h-51.3c-14.2 0-25.7-11.5-25.7-25.7v-25.6c0-36-30.8-38.5-30.8-38.5z"/>
			<path id="&lt;Path&gt;" class="s0" d="m8.3 364.3h230.9v6.4h-230.9z"/>
			<g id="&lt;Group&gt;">
				<g id="&lt;Group&gt;">
					<path id="&lt;Compound Path&gt;" class="s0" d="m303.3 191.8l5-4.6c4.7 5.7 13.6 9.1 20.3 8.6 5.4-0.5 9.6-3.6 9.2-8.4-0.9-13-32.4-12.6-32.4-29.8 0-8.3 7.4-12.5 16.4-12.5 6.1 0 13 1.8 18.3 5.5l-4.7 4.6c-4.2-5.1-11.5-8.4-17.1-8.2-5.3 0.1-9.3 2.9-9 8.1 0.6 11.9 32.7 12.2 32.6 29.6 0.1 9.2-8.4 13.2-18.1 13.1-7 0-14.8-2.1-20.5-6z"/>
				</g>
				<g id="&lt;Group&gt;">
					<path id="&lt;Compound Path&gt;" fill-rule="evenodd" class="s0" d="m361.5 197.1c1.6-2.8 2.9-5.6 5.5-12.4l14.9-38.9h5.6l19 51.3h-7.4l-7.5-20.2h-20.1l-3.1 7.9c-2.6 6.9-3.1 9.6-3 12.3zm10.6-21.7h19.1l-9.3-25.3z"/>
				</g>
				<g id="&lt;Group&gt;">
					<path id="&lt;Compound Path&gt;" class="s0" d="m379.9 129.8c-1.9-0.3-5.2-0.8-5.3 2h-0.7c0-4.4 2-6.3 5.2-6.3 3.4 0 8.9 2.7 12 3 2.8 0.7 5.4 0.5 5.4-1.8h0.7c0 4.4-2 6.2-5.2 6.2-3.5 0-9-2.6-12.1-3.1z"/>
				</g>
				<g id="&lt;Group&gt;">
					<path id="&lt;Compound Path&gt;" fill-rule="evenodd" class="s0" d="m450.9 197.8c-15 0-27.2-11.8-27.2-26.4 0-14.6 12.2-26.3 27.2-26.3 14.9 0 27.1 11.7 27.1 26.3 0 14.6-12.2 26.4-27.1 26.4zm20-21.6c0-15.6-10.3-30.2-23.8-28.7-11 0.6-16.4 9.1-16.4 19.3 0.1 15.4 10.2 29.4 23.6 28.5 11.5-0.5 16.7-9.1 16.6-19.1z"/>
				</g>
				<g id="&lt;Group&gt;">
					<path id="&lt;Compound Path&gt;" fill-rule="evenodd" class="s0" d="m533.2 197.1v-51.3h18.5c6.8 0 11.9 1.9 14.8 4.9 2.4 2.2 3.5 5.1 3.5 8 0 4.2-1.8 8-5.2 10.5-3.2 2.3-7.9 3.6-13.8 3.6h-10.8v24.3zm6.9-25.8h10c4.4 0 7.9-1.1 10.1-3.1 1.9-1.9 2.8-4.8 2.8-7.6 0-3.2-1-6.4-3.1-8.6-2.9-3.1-7.5-4.8-13.2-4.8h-6.6z"/>
				</g>
				<g id="&lt;Group&gt;">
					<path id="&lt;Compound Path&gt;" class="s0" d="m597.6 197.1v-51.3h33.6l1.2 3.8c-1.7-0.7-3.4-1.2-5.5-1.4-6.9-1.1-14.6-1-22.3-1v22.7c4 0 9.5 0.2 14-0.3 1.2-0.2 2.5-0.4 3.5-1v4.1c-1-0.5-2.3-0.7-3.5-0.9-4.5-0.5-9.9-0.3-14-0.3v24.1c7.9 0 15.9 0.2 22.8-1 1.8-0.2 3.4-0.6 5-1.2l-1.2 3.7z"/>
				</g>
				<g id="&lt;Group&gt;">
					<path id="&lt;Compound Path&gt;" fill-rule="evenodd" class="s0" d="m660.3 197.1v-51.3h15.4c17.4 0 28.3 10.7 28.3 25.2-0.1 14.3-10 26.1-30.8 26.1zm7-1.5h6c16.3-0.1 23.4-9.1 23.6-21.7 0.2-15.9-10.1-26.4-25-26.6h-4.6z"/>
				</g>
				<g id="&lt;Group&gt;">
					<path id="&lt;Compound Path&gt;" fill-rule="evenodd" class="s0" d="m729 197.1v-51.3h18.9c7.1 0 12.2 2.1 15.2 5.2 2 2.2 2.9 4.9 2.9 7.7 0.1 4-1.5 7.5-4.5 9.9-2.2 1.7-5.2 2.9-8.7 3.5 4.6 8.4 9.8 17.3 15.6 25h-8.8l-14.1-24.6h-9.5v24.6zm6.9-26.1h10.5c4.6 0 7.9-1.1 10.1-3.3 1.8-1.6 2.7-4.4 2.7-7.1 0-2.8-0.9-5.7-2.6-7.6-2.7-3.6-7.5-5.8-13.8-5.8h-6.9z"/>
				</g>
				<g id="&lt;Group&gt;">
					<path id="&lt;Compound Path&gt;" fill-rule="evenodd" class="s0" d="m815 197.8c-15 0-27.1-11.8-27.1-26.4 0-14.6 12.1-26.3 27.1-26.3 15 0 27.1 11.7 27.1 26.3 0 14.6-12.1 26.4-27.1 26.4zm20.1-21.6c-0.1-15.6-10.4-30.2-23.8-28.7-11 0.6-16.4 9.1-16.4 19.3 0 15.4 10.2 29.4 23.5 28.5 11.5-0.5 16.7-9.1 16.7-19.1z"/>
				</g>
				<g id="&lt;Group&gt;">
					<path id="&lt;Compound Path&gt;" class="s0" d="m476.2 273.1c-2.1 0.9-4.9 1.4-8 1.4-5.7 0-10.9-3.9-10.9-10.3v-11.9c0-6.8 5.1-10.6 11-10.6 3.3 0 6.1 0.9 7.3 1.5l-0.7 2.9c-1.2-0.5-3.8-1.4-6.6-1.4-4.4 0-7.8 3-7.8 7.9v11.4c0 4.7 3.4 7.5 8.1 7.5 2.9 0 5.5-0.7 7-1.2z"/>
				</g>
				<g id="&lt;Group&gt;">
					<path id="&lt;Compound Path&gt;" fill-rule="evenodd" class="s0" d="m514.2 274.1l-2.8-8.4h-13.4l-2.7 8.4h-3.5l10.6-31.9h4.6l10.6 31.9zm-15.2-11.2h11.6l-5.8-17.9z"/>
				</g>
				<g id="&lt;Group&gt;">
					<path id="&lt;Compound Path&gt;" fill-rule="evenodd" class="s0" d="m652.7 274.1l-2.7-8.4h-13.4l-2.7 8.4h-3.5l10.6-31.9h4.6l10.6 31.9zm-15.3-11.2h11.6l-5.8-17.9z"/>
				</g>
				<g id="&lt;Group&gt;">
					<path id="&lt;Compound Path&gt;" class="s0" d="m674.2 271.1h14v3h-17.3v-31.9h3.3z"/>
				</g>
				<g id="&lt;Group&gt;">
					<path id="&lt;Compound Path&gt;" fill-rule="evenodd" class="s0" d="m539.1 262.4v11.7h-3.3v-31.9h9.9c5.2 0 9.9 3.1 9.9 8.9v2.3c0 5.8-4.7 9-9.9 9zm0-17.4v14.6h6.4c4 0 6.9-2.3 6.9-6.5v-1.7c0-4.2-2.9-6.4-6.9-6.4z"/>
				</g>
				<g id="&lt;Group&gt;">
					<path id="&lt;Compound Path&gt;" class="s0" d="m574.3 242.2h3.3v31.9h-3.3z"/>
				</g>
				<g id="&lt;Group&gt;">
					<path id="&lt;Compound Path&gt;" class="s0" d="m603.5 245.1h-9.6v-2.9h22.4v2.9h-9.5v29h-3.3z"/>
				</g>
			</g>
		</g>
	</g>
</svg>